<?xml version="1.0" encoding="utf-8"?>
<!-- Generator: Adobe Illustrator 28.3.0, SVG Export Plug-In . SVG Version: 6.00 Build 0)  -->
<svg version="1.1" id="Calque_1" xmlns="http://www.w3.org/2000/svg" xmlns:xlink="http://www.w3.org/1999/xlink" x="0px" y="0px"
	 viewBox="0 0 580.3 139.2" style="enable-background:new 0 0 580.3 139.2;" xml:space="preserve">
<style type="text/css">
	.st0{fill:#1D1D1B;}
	.st1{fill:#FFFFFF;}
	.st2{fill:#007B79;}
	.st3{fill:#113946;}
</style>
<g>
	<g>
		<g>
			<g>
				<path class="st1" d="M145.9,64.4c2.4-4.5,5.7-7.9,9.8-10.4c4.1-2.5,8.7-3.7,13.8-3.7c4.5,0,8.5,0.9,11.9,2.7
					c3.4,1.8,6.1,4,8.1,6.6v-8.4h12v57.6h-12v-8.6c-2,2.7-4.8,5-8.3,6.8c-3.5,1.8-7.5,2.7-11.9,2.7c-5,0-9.5-1.3-13.6-3.8
					c-4.1-2.5-7.4-6.1-9.8-10.7c-2.4-4.6-3.6-9.7-3.6-15.5C142.3,74,143.5,68.9,145.9,64.4z M187,69.7c-1.6-2.9-3.8-5.2-6.4-6.7
					c-2.7-1.5-5.5-2.3-8.6-2.3c-3.1,0-5.9,0.8-8.6,2.2c-2.7,1.5-4.8,3.7-6.4,6.6c-1.6,2.9-2.5,6.3-2.5,10.3c0,4,0.8,7.5,2.5,10.5
					c1.6,3,3.8,5.3,6.5,6.8c2.7,1.6,5.5,2.4,8.5,2.4c3.1,0,5.9-0.8,8.6-2.3c2.6-1.5,4.8-3.8,6.4-6.7c1.6-3,2.5-6.4,2.5-10.4
					S188.6,72.6,187,69.7z"/>
				<path class="st1" d="M258.4,53.1c3.6,1.9,6.4,4.7,8.4,8.4c2,3.7,3,8.2,3,13.4v34H258V76.7c0-5.2-1.3-9.1-3.9-11.9
					c-2.6-2.8-6.1-4.1-10.6-4.1c-4.5,0-8,1.4-10.6,4.1c-2.6,2.8-3.9,6.7-3.9,11.9v32.2h-11.9V51.3H229v6.6c2-2.4,4.4-4.2,7.5-5.5
					c3-1.3,6.3-2,9.7-2C250.7,50.3,254.8,51.3,258.4,53.1z"/>
				<path class="st1" d="M295.2,106.1c-4.4-2.5-7.8-6-10.4-10.5c-2.5-4.5-3.8-9.7-3.8-15.6c0-5.9,1.3-11,3.9-15.6
					c2.6-4.5,6.1-8,10.6-10.5c4.5-2.4,9.4-3.7,15-3.7c5.5,0,10.5,1.2,15,3.7c4.5,2.4,8,5.9,10.6,10.5c2.6,4.5,3.9,9.7,3.9,15.6
					c0,5.9-1.3,11.1-4,15.6c-2.7,4.5-6.3,8-10.8,10.5c-4.6,2.5-9.6,3.7-15.1,3.7C304.6,109.8,299.6,108.6,295.2,106.1z M318.6,97.3
					c2.7-1.5,4.9-3.7,6.5-6.6c1.7-2.9,2.5-6.5,2.5-10.7c0-4.2-0.8-7.7-2.4-10.6c-1.6-2.9-3.7-5.1-6.4-6.5c-2.7-1.5-5.5-2.2-8.6-2.2
					s-5.9,0.7-8.5,2.2c-2.6,1.5-4.7,3.6-6.2,6.5c-1.5,2.9-2.3,6.4-2.3,10.6c0,6.2,1.6,11,4.8,14.4c3.2,3.4,7.2,5.1,12,5.1
					C313.1,99.5,315.9,98.7,318.6,97.3z"/>
				<path class="st1" d="M403.9,51.3v57.6H392v-6.8c-1.9,2.4-4.3,4.2-7.4,5.6c-3,1.4-6.3,2-9.7,2c-4.5,0-8.6-0.9-12.2-2.8
					c-3.6-1.9-6.4-4.7-8.5-8.4c-2.1-3.7-3.1-8.2-3.1-13.4V51.3H363v32.1c0,5.2,1.3,9.1,3.9,11.9c2.6,2.8,6.1,4.1,10.6,4.1
					c4.5,0,8-1.4,10.6-4.1c2.6-2.8,3.9-6.7,3.9-11.9V51.3H403.9z"/>
				<path class="st1" d="M497,51.3l-17.9,57.6h-12.5l-11.6-42.6l-11.6,42.6h-12.5l-18-57.6h12.1l12,46.3l12.2-46.3h12.4l11.7,46.1
					l11.9-46.1H497z"/>
				<path class="st1" d="M558.2,84.5h-44c0.3,4.6,2.1,8.3,5.1,11.1c3.1,2.8,6.8,4.2,11.3,4.2c6.4,0,10.9-2.7,13.6-8.1h12.9
					c-1.7,5.3-4.9,9.6-9.5,13c-4.6,3.4-10.2,5.1-17,5.1c-5.5,0-10.4-1.2-14.8-3.7c-4.4-2.5-7.8-6-10.2-10.5
					c-2.5-4.5-3.7-9.7-3.7-15.6c0-5.9,1.2-11.1,3.6-15.6c2.4-4.5,5.8-8,10.1-10.4c4.4-2.4,9.4-3.7,15-3.7c5.4,0,10.3,1.2,14.5,3.6
					c4.3,2.4,7.6,5.7,9.9,10c2.4,4.3,3.6,9.2,3.6,14.8C558.7,80.8,558.5,82.8,558.2,84.5z M546.2,74.9c-0.1-4.4-1.6-7.9-4.7-10.6
					c-3.1-2.6-6.9-4-11.4-4c-4.1,0-7.6,1.3-10.6,3.9c-2.9,2.6-4.7,6.2-5.2,10.6H546.2z"/>
			</g>
		</g>
		<g>
			<polygon class="st1" points="33.6,68.1 21.6,76.5 21.6,122.2 33.6,113.8 			"/>
			<polygon class="st1" points="39.6,109.6 61,94.8 61,48.9 39.6,63.9 			"/>
			<polygon class="st1" points="67,44.6 67,90.6 106.2,63.3 106.2,17 			"/>
		</g>
	</g>
	<g>
		<polygon class="st1" points="520,43.7 520,32.1 541.4,17 541.4,28.8 		"/>
	</g>
</g>
</svg>
